<svg width="40" height="40" viewBox="0 0 40 40" fill="none" xmlns="http://www.w3.org/2000/svg">
<circle cx="20" cy="20" r="20" fill="#171717"/>
<circle cx="20" cy="20" r="19.5" stroke="white" stroke-opacity="0.1"/>
<g opacity="0.7">
<path d="M26.6667 14.1666C27.1269 14.1666 27.5 14.5397 27.5 15C27.5 15.4602 27.1269 15.8333 26.6667 15.8333H13.3333C12.8731 15.8333 12.5 15.4602 12.5 15C12.5 14.5397 12.8731 14.1666 13.3333 14.1666H26.6667ZM26.6667 19.1666C27.1269 19.1666 27.5 19.5397 27.5 20C27.5 20.4602 27.1269 20.8333 26.6667 20.8333H13.3333C12.8731 20.8333 12.5 20.4602 12.5 20C12.5 19.5397 12.8731 19.1666 13.3333 19.1666H26.6667ZM26.6667 24.1666C27.1269 24.1666 27.5 24.5397 27.5 25C27.5 25.4602 27.1269 25.8333 26.6667 25.8333H13.3333C12.8731 25.8333 12.5 25.4602 12.5 25C12.5 24.5397 12.8731 24.1666 13.3333 24.1666H26.6667Z" fill="white"/>
</g>
</svg>
