<svg viewBox="0 0 512 512" xmlns="http://www.w3.org/2000/svg">
  <path d="M179.146,65.516c32.231-39.262,84.806-61.131,151.172-61.131C333.264,4.385,385.69,74.203,385.69,176.681c0,102.477-52.426,194.904-132.507,194.904-40.951,0-79.146-15.094-100.337-39.238L160.974,387.647v43.67c0,25.436,12.237,47.757,33.077,47.757h40.974c20.844,0,39.569-11.64,49.48-30.745l87.739-134.547c-49.792-38.605-82.036-94.459-82.036-160.854" fill="#F44336" />
  <path d="M482.645,373.571c-53.245,0-98.687-12.012-135.023-36.036l-79.147-119.405c45.991-31.781,79.073-77.201,79.073-132.225C385.69,93.485,293.243,0,179.146,0C79.073,0,0,93.485,0,176.681c0,83.196,79.073,148.74,179.146,148.74c49.04,0,95.033-24.521,135.023-36.036l79.147,119.405c-40.971,27.672-73.426,61.496-100.337,61.496" fill="#4285F4" />
  <path d="M482.645,176.681c32.231-39.262,84.806-61.131,151.172-61.131C761.705,115.55,813.931,209.765,813.931,312.241c0,102.477-52.426,194.904-132.507,194.904C581.091,507.145,529.665,404.668,482.645,373.571z" fill="#34A853" />
</svg>
