<svg width="16" height="16" viewBox="0 0 16 16" fill="none" xmlns="http://www.w3.org/2000/svg">
<path d="M7.99987 2.38639C6.96642 2.38639 6.12865 3.22416 6.12865 4.2576V7.37629C6.12865 8.40973 6.96642 9.2475 7.99987 9.2475C9.03331 9.2475 9.87108 8.40973 9.87108 7.37629V4.2576C9.87108 3.22416 9.03331 2.38639 7.99987 2.38639ZM8.6236 12.9557V13.9255C8.6236 14.27 8.34435 14.5493 7.99987 14.5493C7.65539 14.5493 7.37613 14.27 7.37613 13.9255V12.9557C4.56934 12.6454 2.38623 10.2658 2.38623 7.37629C2.38623 7.03181 2.66549 6.75255 3.00997 6.75255C3.35445 6.75255 3.63371 7.03181 3.63371 7.37629C3.63371 9.78765 5.5885 11.7425 7.99987 11.7425C10.4112 11.7425 12.366 9.78765 12.366 7.37629C12.366 7.03181 12.6453 6.75255 12.9898 6.75255C13.3342 6.75255 13.6135 7.03181 13.6135 7.37629C13.6135 10.2658 11.4304 12.6454 8.6236 12.9557ZM7.99987 1.13892C9.72227 1.13892 11.1186 2.5352 11.1186 4.2576V7.37629C11.1186 9.09869 9.72227 10.495 7.99987 10.495C6.27746 10.495 4.88118 9.09869 4.88118 7.37629V4.2576C4.88118 2.5352 6.27746 1.13892 7.99987 1.13892Z" fill="#010101"/>
</svg>
