<svg width="29" height="31" viewBox="0 0 29 31" fill="none" xmlns="http://www.w3.org/2000/svg">
<path d="M28.3555 18.7269C28.0616 18.2727 27.6438 17.8186 27.1023 17.5309C26.6691 17.319 26.3906 16.9708 26.1431 16.562C25.3541 15.2601 25.8182 13.5494 27.1333 12.7773C28.6804 11.9144 29.1755 9.99173 28.2781 8.49297L27.2416 6.70657C26.3597 5.20781 24.4258 4.67794 22.8941 5.55601C21.5326 6.28268 19.7844 5.79823 18.9953 4.51142C18.7478 4.08752 18.6085 3.63335 18.6395 3.17919C18.6859 2.58877 18.5002 2.02862 18.2217 1.57445C17.6493 0.635837 16.6127 0 15.4678 0H13.2864C12.157 0.030278 11.1204 0.635837 10.5479 1.57445C10.254 2.02862 10.0838 2.58877 10.1147 3.17919C10.1457 3.63335 10.0064 4.08752 9.75889 4.51142C8.96985 5.79823 7.22159 6.28268 5.87557 5.55601C4.32843 4.67794 2.40998 5.20781 1.51264 6.70657L0.476059 8.49297C-0.405811 9.99173 0.089274 11.9144 1.62094 12.7773C2.93601 13.5494 3.40015 15.2601 2.62658 16.562C2.36357 16.9708 2.08508 17.319 1.65188 17.5309C1.12586 17.8186 0.661715 18.2727 0.414173 18.7269C-0.158268 19.6655 -0.127326 20.8464 0.445116 21.8304L1.51264 23.6471C2.08508 24.616 3.15261 25.2215 4.26655 25.2215C4.79258 25.2215 5.41143 25.0702 5.90652 24.7674C6.2933 24.51 6.75744 24.4192 7.268 24.4192C8.79967 24.4192 10.0838 25.6757 10.1147 27.1745C10.1147 28.9155 11.5381 30.278 13.3328 30.278H15.4369C17.2161 30.278 18.6395 28.9155 18.6395 27.1745C18.6859 25.6757 19.97 24.4192 21.5017 24.4192C21.9968 24.4192 22.4609 24.51 22.8632 24.7674C23.3582 25.0702 23.9616 25.2215 24.5031 25.2215C25.6016 25.2215 26.6691 24.616 27.2416 23.6471L28.3246 21.8304C28.8815 20.8161 28.9279 19.6655 28.3555 18.7269Z" fill="white"/>
<path d="M14.4007 19.424C11.9717 19.424 10.0068 17.5316 10.0068 15.1548C10.0068 12.778 11.9717 10.8705 14.4007 10.8705C16.8297 10.8705 18.7482 12.778 18.7482 15.1548C18.7482 17.5316 16.8297 19.424 14.4007 19.424Z" fill="#182542"/>
</svg>
